<svg xmlns="http://www.w3.org/2000/svg" xmlns:xlink="http://www.w3.org/1999/xlink" fill="#fff" version="1.1" x="0px" y="0px" viewBox="0 0 100 125" enable-background="new 0 0 100 100" xml:space="preserve"><path d="M49.35,10.148c-21.659,0-39.279,17.62-39.279,39.278c0,10.492,4.085,20.355,11.504,27.774  c7.418,7.419,17.283,11.504,27.775,11.504c21.658,0,39.277-17.62,39.277-39.278C88.627,27.768,71.008,10.148,49.35,10.148z   M11.951,49.426c0-20.621,16.777-37.397,37.399-37.398c9.973,0,19.039,3.932,25.75,10.317L60.297,37.149  c-0.074-0.17-0.162-0.32-0.28-0.431c-0.2-0.189-0.588-0.439-1.646-0.439c-1.44,0-4.473,0.56-6.697,2.659  c-0.533,0.502-0.982,1.058-1.363,1.633v-1.777c1.383-1.013,3.269-3.986,3.269-6.841c0-3.687-2.759-6.183-3.937-6.437  c-0.059-0.012-0.195-0.026-0.254-0.026c-1.522,0-4.039,3.021-4.039,6.463c0,2.855,1.887,5.828,3.269,6.841v1.802  c-0.386-0.585-0.841-1.15-1.384-1.663c-2.232-2.107-5.268-2.669-6.71-2.669c-1.052,0-1.438,0.25-1.636,0.437  c-0.326,0.307-0.485,0.833-0.486,1.607c-0.001,1.848,0.879,4.545,2.85,6.405c2.002,1.889,4.75,2.734,6.586,2.734l0,0  c0.293,0,0.546-0.029,0.78-0.073v1.526l-0.949,0.949c0,0,0.001,0,0.001,0.001c-0.188-0.214-0.369-0.431-0.582-0.631  c-2.306-2.176-5.409-2.756-6.88-2.756c-1.036,0-1.418,0.247-1.616,0.433c-0.323,0.304-0.48,0.824-0.481,1.586  c-0.001,1.406,0.618,4.37,2.942,6.566c0.233,0.22,0.478,0.421,0.728,0.614l-0.725,0.725c-0.012,0.013-0.017,0.03-0.029,0.044  c-0.305-0.033-0.588-0.055-0.82-0.055c-1.035,0-1.417,0.247-1.615,0.434c-0.323,0.306-0.48,0.826-0.48,1.591  c0,0.241,0.027,0.541,0.069,0.862L22.256,75.189C15.609,68.209,11.951,59.102,11.951,49.426z M56.502,43.495  c-1.647,1.555-3.96,2.264-5.412,2.264c-0.3,0-0.491-0.033-0.59-0.06c-0.23-0.704,0.188-3.506,2.336-5.531  c1.842-1.738,4.426-2.198,5.535-2.198c0.186,0,0.326,0.011,0.426,0.024C58.91,38.827,58.553,41.561,56.502,43.495z M49.465,37.347  c-0.75-0.661-2.424-2.997-2.424-5.394c0-2.662,1.834-4.534,2.307-4.755c0.57,0.276,2.539,2.001,2.539,4.755  C51.887,34.351,50.215,36.686,49.465,37.347z M48.418,45.698c-0.098,0.026-0.285,0.058-0.58,0.058l0,0  c-1.453,0-3.77-0.711-5.425-2.273c-2.052-1.937-2.417-4.67-2.306-5.503c0.695-0.091,3.813,0.152,5.966,2.184  C48.221,42.189,48.646,44.992,48.418,45.698z M47.088,59.135c-1.195-1.128-2.602-1.82-3.886-2.232l0.208-0.209  c1.555,0.801,3.174,1.181,4.393,1.181c0.308,0,0.572-0.032,0.815-0.081v3.219C48.2,60.352,47.699,59.711,47.088,59.135z   M48.369,66.04c-0.097,0.025-0.279,0.056-0.564,0.056c-1.486,0-3.869-0.74-5.59-2.362c-2.111-1.995-2.508-4.79-2.4-5.643  c0.68-0.085,3.893,0.181,6.112,2.274C48.137,62.451,48.596,65.318,48.369,66.04z M42.216,53.819  c-2.112-1.995-2.509-4.79-2.401-5.642c0.678-0.083,3.893,0.18,6.112,2.274c2.212,2.087,2.67,4.955,2.442,5.675  c-0.097,0.025-0.28,0.056-0.566,0.056C46.318,56.182,43.936,55.442,42.216,53.819z M49.35,86.824  c-9.676,0-18.783-3.658-25.764-10.305l15.128-15.129c0.445,1.19,1.18,2.479,2.34,3.573c2.067,1.95,4.881,2.823,6.751,2.823  c0.307,0,0.571-0.031,0.813-0.08v4.811c0,0.467,0.379,0.846,0.847,0.846c0.467,0,0.846-0.379,0.846-0.846v-4.779  c0.242,0.045,0.504,0.075,0.807,0.075c1.861,0,4.632-0.843,6.628-2.728c2.095-1.977,2.839-4.702,2.841-6.436  c0-0.813-0.162-1.362-0.498-1.68c-0.205-0.193-0.605-0.451-1.708-0.451c-1.813,0-4.669,0.697-6.75,2.66  c-0.511,0.481-0.948,1.012-1.319,1.563v-2.919c0.242,0.045,0.504,0.074,0.807,0.074c1.861,0,4.631-0.843,6.628-2.728  c2.095-1.976,2.839-4.7,2.841-6.434c0-0.813-0.162-1.363-0.499-1.682c-0.206-0.193-0.604-0.45-1.706-0.45  c-1.813,0-4.67,0.696-6.751,2.659c-0.511,0.482-0.948,1.013-1.319,1.563v-0.96l2.668-2.667c1.553-0.37,3.299-1.166,4.686-2.475  c1.508-1.423,2.369-3.339,2.689-4.989c-0.001,0.006-0.002,0.011-0.002,0.017L76.43,23.675c6.385,6.712,10.316,15.778,10.316,25.751  C86.746,70.047,69.971,86.824,49.35,86.824z M52.791,60.41c1.84-1.735,4.379-2.198,5.589-2.198c0.222,0,0.385,0.015,0.494,0.032  c0.134,0.827-0.193,3.632-2.29,5.611c-1.65,1.557-3.99,2.266-5.467,2.266c-0.341,0-0.552-0.04-0.652-0.07  C50.207,65.354,50.591,62.485,52.791,60.41z M52.791,50.496c1.84-1.735,4.379-2.198,5.59-2.198c0.222,0,0.384,0.015,0.493,0.031  c0.133,0.829-0.193,3.633-2.29,5.612c-1.65,1.557-3.99,2.266-5.467,2.266c-0.342,0-0.552-0.04-0.652-0.07  C50.207,55.439,50.592,52.571,52.791,50.496z"/><text x="0" y="115" fill="#000000" font-size="5px" font-weight="bold" font-family="'Helvetica Neue', Helvetica, Arial-Unicode, Arial, Sans-serif">Created by Kaylen Yul Lee</text><text x="0" y="120" fill="#000000" font-size="5px" font-weight="bold" font-family="'Helvetica Neue', Helvetica, Arial-Unicode, Arial, Sans-serif">from the Noun Project</text></svg>
