<svg xmlns="http://www.w3.org/2000/svg" xmlns:xlink="http://www.w3.org/1999/xlink" fill="#fff" version="1.1" x="0px" y="0px" viewBox="0 0 100 125" enable-background="new 0 0 100 100" xml:space="preserve"><path d="M49.723,10.148c-21.658,0-39.279,17.62-39.279,39.278c0,10.492,4.085,20.355,11.504,27.774  c7.418,7.419,17.282,11.504,27.774,11.504C71.381,88.704,89,71.084,89,49.426C89,27.768,71.381,10.148,49.723,10.148z   M49.723,12.028c9.973,0,19.039,3.932,25.751,10.317L60.309,37.511c-2.654-4.587-6.38-7.815-10.586-7.815  c-8.297,0-14.731,12.546-14.731,23.337c0,3.303,0.603,5.996,1.604,8.191L22.629,75.189c-6.647-6.98-10.305-16.088-10.305-25.763  C12.324,28.806,29.101,12.029,49.723,12.028z M36.872,53.033c0-9.718,5.731-21.457,12.851-21.457c7.117,0,12.85,11.739,12.85,21.457  c0,8.919-4.804,14.243-12.85,14.243C41.676,67.276,36.872,61.952,36.872,53.033z M49.723,86.824  c-9.675,0-18.782-3.658-25.764-10.305l13.568-13.568c2.828,4.431,7.607,6.205,12.196,6.205c7.121,0,14.73-4.235,14.73-16.123  c0-4.651-1.198-9.627-3.223-13.786l15.572-15.573c6.386,6.712,10.318,15.778,10.318,25.751  C87.121,70.047,70.344,86.824,49.723,86.824z"/><path d="M40.561,56.1c0.503-0.129,0.805-0.641,0.676-1.145c-0.109-0.426-0.2-0.867-0.27-1.314c-0.08-0.514-0.563-0.862-1.074-0.784  c-0.514,0.08-0.864,0.561-0.784,1.073c0.079,0.508,0.183,1.011,0.308,1.494c0.109,0.425,0.49,0.706,0.91,0.706  C40.403,56.13,40.482,56.121,40.561,56.1z"/><path d="M40.755,58.754c3.028,5.285,8.597,6.149,8.833,6.184c0.045,0.007,0.09,0.01,0.135,0.01c0.459,0,0.859-0.336,0.928-0.803  c0.076-0.513-0.278-0.99-0.791-1.066c-0.049-0.008-4.91-0.788-7.473-5.258c-0.259-0.451-0.832-0.607-1.283-0.35  C40.652,57.73,40.497,58.305,40.755,58.754z"/><text x="0" y="115" fill="#000000" font-size="5px" font-weight="bold" font-family="'Helvetica Neue', Helvetica, Arial-Unicode, Arial, Sans-serif">Created by Kaylen Yul Lee</text><text x="0" y="120" fill="#000000" font-size="5px" font-weight="bold" font-family="'Helvetica Neue', Helvetica, Arial-Unicode, Arial, Sans-serif">from the Noun Project</text></svg>
