<svg xmlns="http://www.w3.org/2000/svg" xmlns:xlink="http://www.w3.org/1999/xlink" fill="#fff" version="1.1" x="0px" y="0px" viewBox="0 0 100 125" enable-background="new 0 0 100 100" xml:space="preserve"><path d="M49.721,10.148c-21.657,0-39.277,17.62-39.277,39.278c0,10.492,4.085,20.355,11.504,27.774S39.23,88.704,49.723,88.704  C71.379,88.704,89,71.084,89,49.426C89,27.768,71.379,10.148,49.721,10.148z M49.721,12.028c9.975,0,19.041,3.932,25.752,10.317  l-15.129,15.13c-0.188-0.746-0.443-1.507-0.781-2.285c-1.234-2.844-4.668-5.783-9.555-5.936c-0.102-0.002-0.197,0.01-0.287,0.036  c-0.092-0.026-0.186-0.041-0.285-0.035c-4.887,0.152-8.318,3.091-9.553,5.935c-1.238,2.85-1.473,5.497-0.693,7.868  c0.25,0.761,0.547,1.498,0.836,2.21c0.436,1.08,0.848,2.099,1.102,3.184c0.396,1.698-0.119,2.993-1.018,4.924  c-0.742,1.594-1.154,3.578-1.195,5.525L22.628,75.189c-6.647-6.98-10.305-16.088-10.305-25.763  C12.323,28.806,29.1,12.029,49.721,12.028z M57.629,54.168c0.906,1.95,1.459,5.174,0.648,7.981  c-0.803,2.788-3.469,5.718-8.582,5.563c-5.061,0.15-7.727-2.776-8.529-5.564c-0.24-0.832-0.373-1.744-0.393-2.707  c-0.035-1.824,0.354-3.795,1.041-5.272c0.844-1.815,1.717-3.692,1.143-6.144c-0.287-1.226-0.746-2.362-1.189-3.46  c-0.289-0.715-0.561-1.391-0.791-2.092c-0.631-1.92-0.42-4.118,0.631-6.533c0.965-2.226,3.846-4.679,7.887-4.805  c0.078-0.002,0.156-0.015,0.229-0.036c0.072,0.021,0.148,0.033,0.227,0.035c4.041,0.127,6.922,2.58,7.889,4.805  c1.047,2.415,1.26,4.613,0.631,6.533c-0.23,0.7-0.504,1.375-0.793,2.088c-0.443,1.1-0.902,2.237-1.189,3.465  C55.914,50.474,56.785,52.352,57.629,54.168z M49.723,86.824c-9.676,0-18.783-3.658-25.765-10.305l15.126-15.128  c0.074,0.437,0.156,0.868,0.275,1.278c0.951,3.307,4.217,7.1,10.336,6.923c0.141,0.004,0.281,0.007,0.42,0.007  c5.875-0.001,9.039-3.699,9.969-6.93c1.01-3.498,0.227-7.192-0.75-9.293c-0.773-1.667-1.441-3.106-1.016-4.924  c0.252-1.086,0.666-2.107,1.102-3.188c0.287-0.711,0.584-1.446,0.834-2.207c0.346-1.052,0.48-2.162,0.428-3.317  c0.055-0.036,0.115-0.06,0.162-0.108l15.959-15.958c6.385,6.712,10.316,15.778,10.316,25.751  C87.119,70.047,70.344,86.824,49.723,86.824z"/><path d="M46.66,48.323c-0.064-0.433-0.146-0.854-0.24-1.269c-0.113-0.506-0.615-0.826-1.121-0.711  c-0.508,0.113-0.826,0.616-0.713,1.123c0.084,0.372,0.158,0.749,0.215,1.136c0.049,0.328,0.074,0.641,0.074,0.958  c0,0.634-0.094,1.257-0.311,2.081c-0.131,0.502,0.168,1.017,0.67,1.148c0.08,0.021,0.162,0.031,0.24,0.031  c0.416,0,0.797-0.279,0.908-0.701c0.174-0.657,0.371-1.542,0.371-2.56C46.754,49.149,46.725,48.745,46.66,48.323z"/><path d="M51.709,63.809c-0.459,0.174-1.004,0.262-1.619,0.262c-0.104,0.006-0.211-0.002-0.41-0.008  c-0.74,0.035-1.383-0.048-1.916-0.243c-0.486-0.181-1.027,0.071-1.207,0.558c-0.178,0.487,0.07,1.027,0.559,1.207  c0.662,0.243,1.416,0.367,2.242,0.367c0.133,0,0.268-0.004,0.318-0.01c0.141,0.006,0.277,0.01,0.41,0.01c0.002,0,0.002,0,0.004,0  c0.844,0,1.613-0.129,2.285-0.385c0.486-0.184,0.73-0.727,0.547-1.211C52.738,63.869,52.193,63.623,51.709,63.809z"/><path d="M54.195,52.75c0.502-0.131,0.805-0.645,0.674-1.146c-0.211-0.808-0.301-1.418-0.301-2.043c0-0.317,0.025-0.63,0.074-0.957  c0.061-0.402,0.137-0.792,0.223-1.176c0.115-0.507-0.203-1.01-0.709-1.124c-0.508-0.112-1.01,0.204-1.125,0.71  c-0.096,0.428-0.182,0.862-0.248,1.309c-0.064,0.42-0.094,0.825-0.094,1.237c0,0.783,0.111,1.559,0.359,2.516  c0.111,0.424,0.492,0.703,0.91,0.703C54.037,52.779,54.117,52.771,54.195,52.75z"/><path d="M54.465,37.067c-0.51,0.093-0.848,0.583-0.754,1.094C53.896,39.178,54,40.367,54,41.511c0,0.376-0.012,0.739-0.035,1.078  c-0.033,0.518,0.359,0.965,0.879,1c0.02,0.001,0.041,0.002,0.061,0.002c0.492,0,0.906-0.382,0.938-0.879  c0.025-0.377,0.037-0.781,0.037-1.2c0-1.254-0.113-2.564-0.32-3.689C55.467,37.312,54.98,36.976,54.465,37.067z"/><path d="M54.734,55.491c-0.518,0.034-0.91,0.483-0.875,1.001c0.039,0.587,0.061,1.193,0.061,1.789c0,1.021-0.064,1.941-0.184,2.658  c-0.086,0.513,0.258,0.998,0.77,1.084c0.053,0.008,0.105,0.013,0.158,0.013c0.451,0,0.848-0.325,0.926-0.784  c0.139-0.818,0.211-1.846,0.211-2.971c0-0.629-0.023-1.273-0.066-1.915C55.699,55.848,55.25,55.441,54.734,55.491z"/><path d="M44.541,43.63c0.021,0,0.043,0,0.064-0.002c0.518-0.035,0.91-0.483,0.875-1.002c-0.023-0.352-0.037-0.729-0.037-1.119  c0-1.127,0.1-2.303,0.283-3.31c0.092-0.511-0.248-1-0.758-1.092c-0.508-0.094-1.002,0.247-1.094,0.758  c-0.201,1.114-0.311,2.408-0.311,3.644c0,0.436,0.014,0.855,0.041,1.247C43.639,43.25,44.051,43.63,44.541,43.63z"/><path d="M45.582,56.531c0.033-0.518-0.359-0.966-0.877-1c-0.518-0.025-0.965,0.359-1,0.877c-0.039,0.613-0.063,1.246-0.063,1.867  c0,1.149,0.076,2.193,0.219,3.02c0.078,0.459,0.477,0.781,0.926,0.781c0.053,0,0.105-0.004,0.16-0.014  c0.512-0.088,0.855-0.575,0.766-1.086c-0.123-0.724-0.189-1.656-0.189-2.701C45.523,57.695,45.543,57.104,45.582,56.531z"/><path d="M47.291,35.235c0.119,0,0.24-0.023,0.357-0.072c0.527-0.217,1.178-0.342,1.984-0.381c0.033-0.001,0.059-0.018,0.09-0.022  c0.031,0.004,0.057,0.021,0.088,0.022c0.809,0.039,1.457,0.164,1.984,0.381c0.117,0.048,0.238,0.072,0.357,0.072  c0.369,0,0.721-0.219,0.871-0.582c0.197-0.479-0.031-1.029-0.512-1.228c-0.729-0.301-1.584-0.472-2.611-0.522  c-0.059,0-0.111,0.021-0.166,0.03c-0.064-0.01-0.125-0.032-0.191-0.03c-1.027,0.05-1.881,0.22-2.611,0.521  c-0.48,0.198-0.709,0.748-0.51,1.228C46.57,35.016,46.922,35.235,47.291,35.235z"/><path d="M49.721,55.576c-0.518,0-0.939,0.42-0.939,0.939v4.701c0,0.519,0.422,0.939,0.939,0.939c0.52,0,0.941-0.421,0.941-0.939  v-4.701C50.662,55.996,50.24,55.576,49.721,55.576z"/><path d="M50.662,37.714c0-0.52-0.42-0.94-0.939-0.94s-0.941,0.421-0.941,0.94v4.7c0,0.519,0.422,0.94,0.941,0.94  s0.939-0.421,0.939-0.94V37.714z"/><path d="M50.662,47.115c0-0.519-0.42-0.94-0.939-0.94s-0.941,0.421-0.941,0.94v4.7c0,0.52,0.422,0.941,0.939,0.941  c0.52,0,0.941-0.422,0.941-0.941V47.115z"/><text x="0" y="115" fill="#000000" font-size="5px" font-weight="bold" font-family="'Helvetica Neue', Helvetica, Arial-Unicode, Arial, Sans-serif">Created by Kaylen Yul Lee</text><text x="0" y="120" fill="#000000" font-size="5px" font-weight="bold" font-family="'Helvetica Neue', Helvetica, Arial-Unicode, Arial, Sans-serif">from the Noun Project</text></svg>
