<svg xmlns="http://www.w3.org/2000/svg" xmlns:xlink="http://www.w3.org/1999/xlink" fill="#fff" version="1.1" x="0px" y="0px" viewBox="0 0 100 125" xml:space="preserve"><path d="M50.11,10.148c-21.658,0-39.279,17.62-39.279,39.278c0,10.492,4.085,20.355,11.504,27.774  c7.418,7.419,17.283,11.504,27.775,11.504c21.656,0,39.277-17.62,39.277-39.278C89.389,27.768,71.768,10.148,50.11,10.148z   M50.11,12.028c9.973,0,19.039,3.932,25.751,10.317l-12.898,12.9l-5.486-5.873c-0.189-0.203-0.389-0.709-0.389-0.986v-0.819  c0-1.075-0.91-1.897-2.022-1.713l-11.967,1.995c-0.961,0.16-1.714,1.048-1.714,2.022v1.297c0,0.293-0.193,0.818-0.385,1.04  l-6.083,7.075c-0.486,0.566-0.84,1.52-0.84,2.266v22.662c-0.085,0.043-0.17,0.088-0.241,0.16L23.017,75.189  c-6.647-6.98-10.305-16.088-10.305-25.763C12.712,28.806,29.489,12.029,50.11,12.028z M55.227,28.553L43.266,30.96v-1.089  c0-0.058,0.084-0.158,0.142-0.167l11.8-1.967v0.65C55.207,28.439,55.223,28.499,55.227,28.553z M63.49,38.563l-12.385,3.811  l-7.143-9.636l11.906-2.396c0.076,0.109,0.148,0.223,0.233,0.314L63.49,38.563z M42.271,33.613l6.303,8.504l-11.773-2.141  L42.271,33.613z M35.958,41.734l13.847,2.518v26.755l-13.639-3.583c-0.087-0.022-0.208-0.178-0.208-0.269V41.734z M51.686,44.162  l12.577-3.871v25.275c0,0.133-0.157,0.363-0.28,0.412l-12.297,4.863V44.162z M50.111,86.824c-9.676,0-18.783-3.658-25.765-10.305  l9.731-9.731v0.367c0,0.949,0.692,1.847,1.611,2.088l13.909,3.653c0.261,0.068,0.574,0.104,0.907,0.104  c0.532,0,1.063-0.091,1.46-0.247l12.709-5.027c0.838-0.332,1.469-1.26,1.469-2.16V39.959c0-0.759-0.376-1.713-0.895-2.269  l-1.001-1.072l12.944-12.944c6.385,6.712,10.316,15.778,10.316,25.751C87.508,70.047,70.732,86.824,50.111,86.824z"/><text x="0" y="115" fill="#ffffff" font-size="5px" font-weight="bold" font-family="'Helvetica Neue', Helvetica, Arial-Unicode, Arial, Sans-serif">Created by Kaylen Yul Lee</text><text x="0" y="120" fill="#ffffff" font-size="5px" font-weight="bold" font-family="'Helvetica Neue', Helvetica, Arial-Unicode, Arial, Sans-serif">from the Noun Project</text></svg>
